<svg width="1147" height="632" viewBox="0 0 1147 632" fill="none" xmlns="http://www.w3.org/2000/svg">
<path d="M0 857.147C0 857.147 34.8032 468.636 363.187 400.178C480.348 375.736 587.579 310.753 667.951 213.104C678.925 199.783 690.003 185.651 700.977 170.593C812.808 17.922 999.784 -40.4588 1165.75 29.0422C1219.16 51.3983 1271.73 85.5696 1318.45 136.653C1378.65 202.563 1417.74 288.513 1431.53 381.065C1444.91 471.3 1478.56 623.044 1556.32 663.355C1564.06 667.293 1571.48 672.042 1578.27 677.718C1606.59 701.349 1664.39 762.857 1645.16 859L0 857.147Z" fill="#EDF3FF"/>
<g opacity="0.08">
<path d="M398.016 527.673C363.066 458.349 327.395 386.302 327.002 309.798C326.741 256.629 347.358 199.623 395.725 170.841C416.473 158.524 444.879 152.643 465.234 165.456C480.68 175.112 488.665 193.557 505.747 200.427C526.691 208.907 550.384 195.971 566.747 181.24C590.833 159.576 609.028 132.96 631.936 110.306C660.668 81.896 697.451 59.6753 738.489 51.3812C779.526 43.0871 824.949 49.8956 858.263 73.54C891.643 97.1844 910.754 138.469 901.656 176.412C896.879 196.404 885.556 219.368 899.3 235.461C914.092 252.73 943.217 245.55 966.976 246.973C1014.62 249.944 1048.92 295.933 1049.97 340.065C1051.01 384.197 1027.12 425.482 1000.03 461.877C972.997 498.272 943.545 528.601 897.075 539" fill="#81B5FF"/>
</g>
<path d="M270.862 528.261C270.862 528.261 -3.39444 558.117 464.563 602.69C464.563 602.69 503.705 605.717 449.885 618.837C397.462 631.536 397.463 656.177 476.883 659.794C622.792 666.353 1175.67 673.418 1248.37 635.489C1248.37 635.489 1295.9 616.987 1203.28 610.511C1141.25 606.222 1199.44 603.11 1203.28 602.774C1274.23 595.878 1395.85 576.451 1337.75 527L270.862 528.261Z" fill="url(#paint0_linear)"/>
<path d="M690 577C860.104 577 998 569.165 998 559.5C998 549.835 860.104 542 690 542C519.896 542 382 549.835 382 559.5C382 569.165 519.896 577 690 577Z" fill="#8DBFFC"/>
<path d="M771.321 312.411H554.046C550.645 312.411 548 309.767 548 306.367V254.044C548 250.644 550.645 248 554.046 248H771.51C774.911 248 777.556 250.644 777.556 254.044V306.178C777.556 309.578 774.722 312.411 771.321 312.411Z" fill="#C6DDFF"/>
<path d="M666.537 275.956C715.434 275.956 755.073 275.702 755.073 275.389C755.073 275.076 715.434 274.823 666.537 274.823C617.639 274.823 578 275.076 578 275.389C578 275.702 617.639 275.956 666.537 275.956Z" fill="white"/>
<path d="M631.378 288.8C659.583 288.8 682.447 288.547 682.447 288.234C682.447 287.921 659.583 287.667 631.378 287.667C603.174 287.667 580.31 287.921 580.31 288.234C580.31 288.547 603.174 288.8 631.378 288.8Z" fill="white"/>
<path d="M771.321 385.89H554.046C550.645 385.89 548 383.245 548 379.845V327.711C548 324.311 550.645 321.667 554.046 321.667H771.51C774.911 321.667 777.556 324.311 777.556 327.711V379.845C777.556 383.245 774.722 385.89 771.321 385.89Z" fill="#C6DDFF"/>
<path d="M665.537 349.623C714.986 349.623 755.073 349.369 755.073 349.056C755.073 348.743 714.986 348.49 665.537 348.49C616.087 348.49 576 348.743 576 349.056C576 349.369 616.087 349.623 665.537 349.623Z" fill="white"/>
<path d="M629.981 362.278C658.504 362.278 681.627 362.024 681.627 361.711C681.627 361.398 658.504 361.145 629.981 361.145C601.458 361.145 578.336 361.398 578.336 361.711C578.336 362.024 601.458 362.278 629.981 362.278Z" fill="white"/>
<path d="M771.321 459.557H554.046C550.645 459.557 548 456.912 548 453.512V401.379C548 397.979 550.645 395.334 554.046 395.334H771.51C774.911 395.334 777.556 397.979 777.556 401.379V453.512C777.556 456.912 774.722 459.557 771.321 459.557Z" fill="#C6DDFF"/>
<path d="M664.537 423.29C714.538 423.29 755.073 423.036 755.073 422.723C755.073 422.41 714.538 422.157 664.537 422.157C614.535 422.157 574 422.41 574 422.723C574 423.036 614.535 423.29 664.537 423.29Z" fill="white"/>
<path d="M628.584 435.945C657.426 435.945 680.807 435.692 680.807 435.379C680.807 435.066 657.426 434.812 628.584 434.812C599.743 434.812 576.362 435.066 576.362 435.379C576.362 435.692 599.743 435.945 628.584 435.945Z" fill="white"/>
<defs>
<linearGradient id="paint0_linear" x1="772" y1="527" x2="772" y2="665" gradientUnits="userSpaceOnUse">
<stop stop-color="#C6DDFF"/>
<stop offset="0.338542" stop-color="#C6DDFF" stop-opacity="0.416667"/>
<stop offset="1" stop-color="#C6DDFF" stop-opacity="0"/>
</linearGradient>
</defs>
</svg>
